<svg width="121" height="47" viewBox="0 0 121 47" fill="none" xmlns="http://www.w3.org/2000/svg">
<path d="M11.4379 29.9014C7.05958 29.9271 3.58268 26.27 3.58268 21.6598C3.55693 17.3073 7.05958 13.7531 11.3864 13.7274C15.6874 13.7016 19.2158 17.3073 19.2416 21.7371C19.2416 26.1669 15.7132 29.8756 11.4379 29.9014ZM11.3864 10.1732C9.8926 10.1732 8.45034 10.4308 7.08533 11.0489C0.69815 13.9592 -1.77431 20.913 1.34202 27.1714C3.81448 32.1678 9.81534 34.6918 14.9405 32.8889C22.0231 30.3907 24.9849 22.0204 21.0702 15.6332C20.6839 15.0151 20.246 14.4485 19.7052 13.7016H24.7789V10.2505C24.5471 10.2247 24.341 10.1732 24.1608 10.1732C19.9112 10.1732 15.6359 10.1732 11.3864 10.1732Z" fill="#1D1D1D"/>
<path d="M40.6432 0H37.1663V33.4297H40.6432V0Z" fill="#1D1D1D"/>
<path d="M33.4845 0H30.0076V3.57991H33.4845V0Z" fill="#1D1D1D"/>
<path d="M121 10.1991H117.523V13.7533H121V10.1991Z" fill="#1D1D1D"/>
<path d="M16.9494 40.3836C15.4299 41.9289 13.5755 42.7788 11.4121 42.8045C9.60927 42.8303 7.96097 42.2122 6.57021 41.079C4.58709 39.4564 3.65992 37.293 3.53115 34.7175H0.105762C-0.151786 38.4262 2.21765 42.8303 5.92634 44.9164C9.96984 47.1828 14.9405 46.8223 18.4947 43.8347C21.3019 41.491 22.8215 38.4777 22.8215 34.7433H19.2673C19.1901 36.9582 18.4432 38.8383 16.9494 40.3836Z" fill="#1D1D1D"/>
<path d="M27.7668 13.7271H30.0075V33.4038H33.4844V10.2245H27.7668V13.7271Z" fill="#1D1D1D"/>
<path d="M114.973 29.0513C114.844 28.6393 114.793 28.1757 114.793 27.7636C114.767 23.5913 114.793 19.4191 114.793 15.221V14.5514V10.9972V0.978638H111.187V10.2246H106.371V13.7788H111.187V15.5558C111.187 19.7281 111.161 23.9004 111.187 28.0984C111.187 30.5451 112.32 32.348 114.432 33.5842C116.261 34.6401 119.016 34.3311 120.974 34.3568V30.7769C119.918 30.7769 118.141 30.7512 117.162 30.7512C116.055 30.6739 115.308 30.0815 114.973 29.0513Z" fill="#1D1D1D"/>
<path d="M55.1462 29.9013C50.7936 29.927 47.2395 26.4244 47.2137 22.0976C47.188 17.7965 50.7936 14.2681 55.2234 14.2424C59.679 14.2166 63.3877 17.7708 63.3877 22.0461C63.3877 26.3986 59.7563 29.8755 55.1462 29.9013ZM49.0938 12.388C48.4757 12.7744 47.9091 13.2122 47.1622 13.753C47.1622 11.976 47.2652 1.67406 47.2652 0H43.8141C43.7883 0.231793 43.6338 9.11719 43.6338 9.29747C43.6338 13.547 43.6338 17.8223 43.6338 22.0718C43.6338 23.5656 43.8913 25.0079 44.5095 26.3729C47.4197 32.7601 54.3735 35.2068 60.6319 32.1162C65.6284 29.6437 68.1523 23.6429 66.3495 18.5177C63.877 11.4609 55.481 8.47332 49.0938 12.388Z" fill="#1D1D1D"/>
<path d="M94.0342 33.43H97.4853V13.7534H103.254V10.2507H94.0342V33.43Z" fill="#1D1D1D"/>
<path d="M91.0706 17.6934C88.1603 11.332 81.2065 8.85951 74.9481 11.9758C70.9046 13.959 68.4837 18.2858 68.664 22.561C68.664 22.561 68.7155 24.5442 69.4108 26.0379C72.0893 32.7857 80.2536 35.5415 86.512 31.704C89.0875 29.8497 90.4525 27.7635 91.1736 26.0379H87.2847C85.8939 28.3301 83.3442 29.8754 80.4081 29.8754C77.4463 29.8754 74.8451 28.3301 73.4028 26.0379C73.4028 26.0379 72.9135 25.2911 72.5787 24.1321C72.4757 23.7715 72.3726 23.3594 72.3211 22.9216L72.2954 22.5868C72.1924 21.5566 72.2954 20.3719 72.862 19.1357C74.0725 16.2511 77.0085 14.2423 80.5112 14.2165C83.8335 14.2165 86.6923 16.2511 87.8513 19.1357H75.8495V22.5868H91.9978V21.8142C91.972 20.9127 91.869 20.0113 91.6372 19.1357C91.4312 18.6463 91.2766 18.157 91.0706 17.6934Z" fill="#1D1D1D"/>
</svg>
