<svg width="113" height="43" viewBox="0 0 113 43" fill="none" xmlns="http://www.w3.org/2000/svg">
<path d="M110.593 41.2659C110.116 41.2659 109.782 40.9084 109.782 40.4077C109.782 39.9071 110.116 39.5495 110.593 39.5495C111.07 39.5495 111.379 39.9071 111.379 40.4077C111.379 40.9084 111.07 41.2659 110.593 41.2659ZM111.975 39.0966H111.379V39.5495C111.189 39.2396 110.879 39.0727 110.45 39.0727C109.711 39.0727 109.234 39.5972 109.234 40.3839C109.234 41.1706 109.735 41.7189 110.474 41.7189C110.879 41.7189 111.213 41.552 111.379 41.2421V41.5997C111.379 42.0765 111.046 42.3864 110.521 42.3864C110.187 42.3864 109.901 42.2672 109.663 42.0765L109.401 42.5056C109.735 42.744 110.116 42.8632 110.545 42.8632C111.403 42.8632 111.975 42.3626 111.975 41.5759V39.0966ZM107.756 39.0727C107.279 39.0727 106.945 39.2396 106.731 39.621V39.0966H106.135V41.8619H106.731V40.3839C106.778 39.9548 107.064 39.6449 107.517 39.621C107.923 39.621 108.185 39.8833 108.185 40.2885V41.8381H108.781V40.1217C108.781 39.478 108.4 39.0727 107.756 39.0727ZM105.348 39.0966H104.752V41.8619H105.348V39.0966ZM105.062 37.9523C104.871 37.9523 104.704 38.0953 104.704 38.3099C104.704 38.5244 104.847 38.6675 105.062 38.6675C105.253 38.6675 105.42 38.5244 105.42 38.3099C105.42 38.0953 105.253 37.9523 105.062 37.9523ZM103.393 41.8619L104.466 39.0966H103.87L103.107 41.2659L102.344 39.0966H101.724L102.797 41.8619H103.393ZM101.367 39.0966H100.771V41.8619H101.367V39.0966ZM101.057 37.9523C100.866 37.9523 100.699 38.0953 100.699 38.3099C100.699 38.5244 100.842 38.6675 101.057 38.6675C101.248 38.6675 101.415 38.5244 101.415 38.3099C101.415 38.0953 101.272 37.9523 101.057 37.9523ZM99.9604 37.9999H99.3644V41.8619H99.9604V37.9999ZM97.791 39.0966H97.195L96.4321 41.1944L95.5978 39.0966H94.9779L96.1222 41.8143L96.0269 42.0288C95.9315 42.2434 95.7885 42.3387 95.5978 42.3387C95.4786 42.3387 95.3594 42.291 95.2402 42.1957L94.9779 42.6486C95.1686 42.8155 95.3594 42.887 95.6216 42.887C96.0269 42.887 96.3606 42.6725 96.5275 42.2434L97.791 39.0966ZM93.4522 41.4328C93.1185 41.4328 92.9277 41.2659 92.9277 41.0276C92.9277 40.7653 93.1185 40.67 93.4999 40.67H94.2389V40.9322C94.1912 41.1944 93.8813 41.4328 93.4522 41.4328ZM94.2389 41.8619H94.8349V40.0501C94.8349 39.4303 94.4296 39.0727 93.7144 39.0727C93.19 39.0727 92.9039 39.1919 92.5225 39.4303L92.7609 39.8356C93.0469 39.6449 93.3092 39.5495 93.5714 39.5495C94.0005 39.5495 94.2389 39.7641 94.2389 40.0978V40.1693H93.4045C92.737 40.1693 92.3556 40.5031 92.3556 41.0037C92.3556 41.5043 92.737 41.8619 93.333 41.8619C93.7383 41.8619 94.0482 41.7427 94.2389 41.5043V41.8619ZM90.3293 41.3851C89.8286 41.3851 89.471 41.0037 89.471 40.4792C89.471 39.9548 89.8286 39.5733 90.3293 39.5733C90.8299 39.5733 91.1875 39.9548 91.1875 40.4792C91.1636 41.0276 90.8299 41.3851 90.3293 41.3851ZM91.7835 37.9999H91.1875V39.5733C90.9729 39.2396 90.663 39.0727 90.2101 39.0727C89.4234 39.0727 88.8989 39.6449 88.8989 40.4792C88.8989 41.3136 89.4234 41.9096 90.2339 41.9096C90.6868 41.9096 91.0206 41.7427 91.2113 41.409V41.8858H91.8073V37.9999H91.7835ZM88.9227 39.0966H88.3267L87.5639 41.1944L86.7295 39.0966H86.1097L87.254 41.8143L87.1586 42.0288C87.0633 42.2434 86.9202 42.3387 86.7295 42.3387C86.6103 42.3387 86.4911 42.291 86.3719 42.1957L86.1097 42.6486C86.3004 42.8155 86.4911 42.887 86.7533 42.887C87.1586 42.887 87.4924 42.6725 87.6592 42.2434L88.9227 39.0966ZM85.1084 39.0966H84.5124V41.8619H85.1084V40.4077C85.1561 39.9309 85.5137 39.5972 86.062 39.6449V39.0727C85.6329 39.0727 85.2991 39.2634 85.1084 39.6449V39.0966ZM81.8901 40.2885C81.9616 39.8356 82.2715 39.5733 82.7006 39.5733C83.1536 39.5733 83.4397 39.8356 83.4635 40.2885H81.8901ZM82.6768 39.0727C81.8663 39.0727 81.2703 39.6449 81.2703 40.4792C81.2703 41.3136 81.8424 41.8858 82.6768 41.8858C83.1536 41.8858 83.5589 41.7189 83.8211 41.409L83.5112 41.0752C83.3205 41.2898 83.0344 41.409 82.7245 41.409C82.2954 41.409 81.9616 41.1468 81.8663 40.7176H83.9641C84.0595 39.7164 83.6542 39.0727 82.6768 39.0727ZM80.269 41.8619L81.3418 39.0966H80.7458L79.983 41.2659L79.2201 39.0966H78.6003L79.673 41.8619H80.269ZM76.5024 40.2885C76.5739 39.8356 76.8838 39.5733 77.3129 39.5733C77.7659 39.5733 78.052 39.8356 78.0758 40.2885H76.5024ZM77.3129 39.0727C76.5024 39.0727 75.9064 39.6449 75.9064 40.4792C75.9064 41.3136 76.4786 41.8858 77.3129 41.8858C77.7897 41.8858 78.195 41.7189 78.4572 41.409L78.1473 41.0752C77.9328 41.2898 77.6705 41.409 77.3606 41.409C76.9315 41.409 76.5978 41.1468 76.5024 40.7176H78.6003C78.6718 39.7164 78.2904 39.0727 77.3129 39.0727ZM73.594 39.0966H72.998V41.8619H73.594V40.4077C73.6417 39.9309 73.9993 39.5972 74.5476 39.6449V39.0727C74.1185 39.0727 73.7847 39.2634 73.594 39.6449V39.0966ZM71.0193 39.5972C71.52 39.5972 71.8537 39.9548 71.8537 40.5031C71.8537 41.0276 71.4961 41.409 71.0193 41.409C70.5187 41.409 70.1611 41.0514 70.1611 40.5031C70.185 39.9548 70.5426 39.5972 71.0193 39.5972ZM71.0193 39.0727C70.1611 39.0727 69.5651 39.6449 69.5651 40.4792C69.5651 41.3136 70.1611 41.8858 71.0193 41.8858C71.8776 41.8858 72.4497 41.3136 72.4497 40.4792C72.4735 39.6449 71.8776 39.0727 71.0193 39.0727ZM69.3029 38.5006C69.4221 38.5006 69.5651 38.5483 69.6843 38.6198L69.9227 38.1668C69.7559 38.0476 69.5175 37.9761 69.3029 37.9761C68.8261 37.9761 68.3493 38.286 68.3493 38.9297V39.1919H67.9917V39.6449H68.3493V41.8619H68.9453V39.6449H69.6605V39.1919H68.9453V38.8582C68.9215 38.6198 69.0884 38.5006 69.3029 38.5006ZM65.4648 39.0727C64.9403 39.0727 64.4397 39.3111 64.4397 39.8833C64.4397 40.8845 65.8939 40.5746 65.8939 41.1229C65.8939 41.3375 65.7032 41.409 65.4409 41.409C65.131 41.409 64.7496 41.2898 64.5112 41.0752L64.2966 41.5043C64.5827 41.7427 65.0118 41.8858 65.4171 41.8858C65.9654 41.8858 66.4899 41.6235 66.4899 41.0752C66.4899 40.074 65.0118 40.3362 65.0118 39.8356C65.0118 39.6449 65.1787 39.5495 65.4171 39.5495C65.6555 39.5495 65.9654 39.6449 66.2038 39.7879L66.4183 39.335C66.18 39.1919 65.8224 39.0727 65.4648 39.0727ZM62.0081 40.2885C62.0796 39.8356 62.3895 39.5733 62.8186 39.5733C63.2715 39.5733 63.5576 39.8356 63.5815 40.2885H62.0081ZM62.8186 39.0727C62.0081 39.0727 61.4121 39.6449 61.4121 40.4792C61.4121 41.3136 61.9842 41.8858 62.8186 41.8858C63.2954 41.8858 63.7007 41.7189 63.9629 41.409L63.653 41.0752C63.4384 41.2898 63.1762 41.409 62.8663 41.409C62.4372 41.409 62.1034 41.1468 62.0081 40.7176H64.1059C64.2013 39.7164 63.796 39.0727 62.8186 39.0727ZM59.9817 39.0727C59.4811 39.0727 59.0996 39.2873 58.9328 39.7402C58.8136 39.3111 58.456 39.0727 57.9792 39.0727C57.5263 39.0727 57.1687 39.2396 56.9779 39.621V39.0966H56.382V41.8619H56.9779V40.5031C56.9779 40.0263 57.264 39.6449 57.7408 39.6449C58.1461 39.6449 58.3845 39.9071 58.3845 40.3124V41.8619H58.9805V40.5031C58.9805 40.0263 59.2665 39.6449 59.7433 39.6449C60.1486 39.6449 60.4108 39.9071 60.4108 40.3124V41.8619H61.0068V40.1455C60.983 39.478 60.6015 39.0727 59.9817 39.0727ZM54.4033 39.5972C54.9039 39.5972 55.2377 39.9548 55.2377 40.5031C55.2377 41.0276 54.8801 41.409 54.4033 41.409C53.9027 41.409 53.5451 41.0514 53.5451 40.5031C53.5451 39.9548 53.9027 39.5972 54.4033 39.5972ZM54.4033 39.0727C53.5451 39.0727 52.9491 39.6449 52.9491 40.4792C52.9491 41.3136 53.5451 41.8858 54.4033 41.8858C55.2615 41.8858 55.8337 41.3136 55.8337 40.4792C55.8337 39.6449 55.2615 39.0727 54.4033 39.0727ZM51.4949 39.0727C51.0181 39.0727 50.6605 39.2396 50.4698 39.6449V37.9999H49.8738V41.8619H50.4698V40.5031C50.4698 40.0025 50.7559 39.6449 51.2565 39.6449C51.6618 39.6449 51.924 39.9071 51.924 40.3124V41.8619H52.52V40.1455C52.52 39.478 52.1385 39.0727 51.4949 39.0727ZM47.2515 39.0966H46.6555V41.8619H47.2515V40.4077C47.2992 39.9309 47.6567 39.5972 48.205 39.6449V39.0727C47.7759 39.0727 47.4422 39.2634 47.2515 39.6449V39.0966ZM44.5815 41.4328C44.2477 41.4328 44.057 41.2659 44.057 41.0276C44.057 40.7653 44.2477 40.67 44.6291 40.67H45.3682V40.9322C45.3443 41.1944 45.0106 41.4328 44.5815 41.4328ZM45.3682 41.8619H45.9641V40.0501C45.9641 39.4303 45.5589 39.0727 44.8437 39.0727C44.3192 39.0727 44.0332 39.1919 43.6517 39.4303L43.8901 39.8356C44.1762 39.6449 44.4384 39.5495 44.7007 39.5495C45.1298 39.5495 45.3682 39.7641 45.3682 40.0978V40.1693H44.5338C43.8663 40.1693 43.4848 40.5031 43.4848 41.0037C43.4848 41.5043 43.8663 41.8619 44.4623 41.8619C44.8675 41.8619 45.1774 41.7427 45.3682 41.5043V41.8619ZM42.9127 37.9999H42.3167V41.8619H42.9127V37.9999ZM41.5062 39.0966H40.9102V40.4554C40.9102 40.9322 40.6241 41.3136 40.1473 41.3136C39.7421 41.3136 39.5037 41.0514 39.5037 40.6461V39.0966H38.9077V40.813C38.9077 41.4805 39.2891 41.8858 39.9328 41.8858C40.3857 41.8858 40.7433 41.7189 40.9102 41.3136V41.8619H41.5062V39.0966ZM36.7383 41.3851C36.2377 41.3851 35.8801 41.0037 35.8801 40.4792C35.8801 39.9548 36.2377 39.5733 36.7383 39.5733C37.2389 39.5733 37.5965 39.9548 37.5965 40.4792C37.5965 41.0276 37.2389 41.3851 36.7383 41.3851ZM38.1925 37.9999H37.5965V39.5733C37.382 39.2396 37.0721 39.0727 36.6191 39.0727C35.8324 39.0727 35.3079 39.6449 35.3079 40.4792C35.3079 41.3136 35.8324 41.9096 36.6429 41.9096C37.0959 41.9096 37.4296 41.7427 37.6204 41.409V41.8858H38.2163V37.9999H38.1925ZM33.5915 39.5972C34.0921 39.5972 34.4259 39.9548 34.4259 40.5031C34.4259 41.0276 34.0683 41.409 33.5915 41.409C33.0909 41.409 32.7333 41.0514 32.7333 40.5031C32.7333 39.9548 33.0909 39.5972 33.5915 39.5972ZM33.5915 39.0727C32.7333 39.0727 32.1373 39.6449 32.1373 40.4792C32.1373 41.3136 32.7333 41.8858 33.5915 41.8858C34.4497 41.8858 35.0219 41.3136 35.0219 40.4792C35.0219 39.6449 34.4497 39.0727 33.5915 39.0727ZM31.589 41.8619V38.2145H30.8738L29.6818 40.6223L28.4899 38.2145H27.7509V41.8619H28.323V39.1442L29.4673 41.4805H29.8726L31.0169 39.1442V41.8619H31.589Z" fill="#1D1D1D"/>
<path d="M10.5873 27.6776C6.53456 27.7014 3.31624 24.3162 3.31624 20.049C3.2924 16.0201 6.53456 12.7303 10.5396 12.7065C14.5208 12.6826 17.7867 16.0201 17.8106 20.1205C17.8106 24.2209 14.5446 27.6538 10.5873 27.6776ZM10.5396 9.41663C9.15689 9.41663 7.82188 9.65502 6.5584 10.2272C0.646228 12.921 -1.64235 19.3577 1.24221 25.1506C3.53079 29.7755 9.08537 32.1117 13.8294 30.443C20.3852 28.1305 23.1268 20.3827 19.5032 14.4706C19.1456 13.8984 18.7403 13.374 18.2397 12.6826H22.9361V9.48814C22.7215 9.4643 22.5308 9.41663 22.3639 9.41663C18.4304 9.41663 14.4731 9.41663 10.5396 9.41663Z" fill="#1D1D1D"/>
<path d="M37.6204 0H34.4021V30.9435H37.6204V0Z" fill="#1D1D1D"/>
<path d="M30.9942 0H27.7759V3.31368H30.9942V0Z" fill="#1D1D1D"/>
<path d="M112.001 9.44055H108.783V12.7304H112.001V9.44055Z" fill="#1D1D1D"/>
<path d="M15.689 37.3803C14.2824 38.8106 12.566 39.5973 10.5635 39.6212C8.89473 39.645 7.36901 39.0729 6.08168 38.0239C4.24605 36.5221 3.38783 34.5196 3.26863 32.1356H0.0979942C-0.1404 35.5685 2.05282 39.645 5.4857 41.576C9.22848 43.6739 13.8295 43.3401 17.1193 40.5748C19.7178 38.4054 21.1243 35.6162 21.1243 32.1595H17.8345C17.763 34.2096 17.0716 35.9499 15.689 37.3803Z" fill="#1D1D1D"/>
<path d="M25.7019 12.7063H27.7759V30.9196H30.9942V9.46411H25.7019V12.7063Z" fill="#1D1D1D"/>
<path d="M106.422 26.8907C106.303 26.5093 106.256 26.0802 106.256 25.6987C106.232 21.8367 106.256 17.9748 106.256 14.0889V13.4691V10.1793V0.905762H102.918V9.4641H98.4601V12.7539H102.918V14.3989C102.918 18.2608 102.894 22.1228 102.918 26.0086C102.918 28.2734 103.967 29.9421 105.922 31.0864C107.614 32.0638 110.165 31.7778 111.977 31.8016V28.4879C111 28.4879 109.355 28.4641 108.449 28.4641C107.424 28.3926 106.732 27.8443 106.422 26.8907Z" fill="#1D1D1D"/>
<path d="M51.0449 27.6775C47.016 27.7014 43.7262 24.4592 43.7023 20.4542C43.6785 16.473 47.016 13.207 51.1164 13.1832C55.2406 13.1593 58.6735 16.4492 58.6735 20.4065C58.6735 24.4354 55.3121 27.6537 51.0449 27.6775ZM45.4426 11.4667C44.8705 11.8243 44.346 12.2296 43.6547 12.7302C43.6547 11.0853 43.75 1.54956 43.75 0H40.5556C40.5317 0.214554 40.3887 8.43914 40.3887 8.60602C40.3887 12.5395 40.3887 16.4969 40.3887 20.4304C40.3887 21.813 40.6271 23.148 41.1992 24.4115C43.8931 30.3237 50.3297 32.5884 56.1227 29.7277C60.7475 27.4391 63.0838 21.8846 61.415 17.1405C59.1264 10.6085 51.3548 7.84316 45.4426 11.4667Z" fill="#1D1D1D"/>
<path d="M87.0408 30.9437H90.2352V12.7304H95.5753V9.48828H87.0408V30.9437Z" fill="#1D1D1D"/>
<path d="M84.2976 16.3776C81.6037 10.4892 75.1671 8.20065 69.3741 11.0852C65.6313 12.9208 63.3904 16.9259 63.5573 20.8832C63.5573 20.8832 63.605 22.7188 64.2486 24.1015C66.7279 30.3474 74.285 32.8983 80.078 29.3462C82.4619 27.6297 83.7254 25.6988 84.3929 24.1015H80.7932C79.5058 26.2232 77.1457 27.6536 74.4281 27.6536C71.6865 27.6536 69.2787 26.2232 67.9437 24.1015C67.9437 24.1015 67.4908 23.4102 67.1809 22.3374C67.0855 22.0037 66.9902 21.6222 66.9425 21.217L66.9187 20.907C66.8233 19.9535 66.9186 18.8569 67.4431 17.7126C68.5636 15.0426 71.2813 13.1831 74.5234 13.1592C77.5987 13.1592 80.2449 15.0426 81.3176 17.7126H70.2085V20.907H85.1558V20.1919C85.1319 19.3575 85.0366 18.5231 84.822 17.7126C84.6313 17.2596 84.4883 16.8067 84.2976 16.3776Z" fill="#1D1D1D"/>
</svg>
